<svg width="25" height="24" viewBox="0 0 25 24" fill="none" xmlns="http://www.w3.org/2000/svg">
<path d="M11.7501 5V19C11.7501 20.1046 10.8546 21 9.75007 21H5.5C4.39543 21 3.5 20.1046 3.5 19V5C3.5 3.89543 4.39543 3 5.5 3H9.75007C10.8546 3 11.7501 3.89543 11.7501 5Z" fill="white"/>
<path d="M15.25 3H19.5001C20.6046 3 21.5001 3.89543 21.5001 5V9.25007C21.5001 10.3546 20.6046 11.2501 19.5001 11.2501H15.25C14.1454 11.2501 13.25 10.3546 13.25 9.25007V5C13.25 3.89543 14.1454 3 15.25 3Z" fill="white"/>
<path d="M15.25 12.75H19.5001C20.6046 12.75 21.5001 13.6454 21.5001 14.75V19.0001C21.5001 20.1046 20.6046 21.0001 19.5001 21.0001H15.25C14.1454 21.0001 13.25 20.1046 13.25 19.0001V14.75C13.25 13.6454 14.1454 12.75 15.25 12.75Z" fill="white"/>
</svg>
