<svg width="33" height="34" viewBox="0 0 33 34" fill="none" xmlns="http://www.w3.org/2000/svg">
<g filter="url(#filter0_b_1013_11715)">
<mask id="path-1-inside-1_1013_11715" fill="white">
<path d="M24.2147 33.625H8.8C3.18267 33.625 0 30.4423 0 24.825L0 9.425C0 3.80767 3.18267 0.625 8.8 0.625H24.2147C29.832 0.625 33 3.80767 33 9.425V24.825C33 30.4423 29.832 33.625 24.2147 33.625Z"/>
</mask>
<path d="M24.2147 33.625H8.8C3.18267 33.625 0 30.4423 0 24.825L0 9.425C0 3.80767 3.18267 0.625 8.8 0.625H24.2147C29.832 0.625 33 3.80767 33 9.425V24.825C33 30.4423 29.832 33.625 24.2147 33.625Z" fill="white" fill-opacity="0.2"/>
<path d="M24.2147 32.5111C24.8299 32.5111 25.3286 33.0098 25.3286 33.625C25.3286 34.2402 24.8299 34.7389 24.2147 34.7389V32.5111ZM24.2147 34.7389C23.5995 34.7389 23.1008 34.2402 23.1008 33.625C23.1008 33.0098 23.5995 32.5111 24.2147 32.5111V34.7389ZM24.2147 34.7389H8.8V32.5111H24.2147V34.7389ZM8.8 34.7389C5.78425 34.7389 3.26771 33.881 1.50586 32.1191C-0.255989 30.3573 -1.11389 27.8407 -1.11389 24.825H1.11389C1.11389 27.4266 1.84732 29.31 3.08114 30.5439C4.31496 31.7777 6.19842 32.5111 8.8 32.5111V34.7389ZM-1.11389 24.825L-1.11389 9.425H1.11389L1.11389 24.825H-1.11389ZM-1.11389 9.425C-1.11389 6.40925 -0.255989 3.89271 1.50586 2.13086C3.26771 0.369011 5.78425 -0.488892 8.8 -0.488892V1.73889C6.19842 1.73889 4.31496 2.47232 3.08114 3.70614C1.84732 4.93996 1.11389 6.82342 1.11389 9.425H-1.11389ZM8.8 -0.488892H24.2147V1.73889L8.8 1.73889V-0.488892ZM24.2147 -0.488892C27.2305 -0.488892 29.744 0.369083 31.5024 2.13182C33.2604 3.89415 34.1139 6.41063 34.1139 9.425H31.8861C31.8861 6.82203 31.1556 4.93852 29.9252 3.70518C28.6953 2.47225 26.8162 1.73889 24.2147 1.73889V-0.488892ZM34.1139 9.425V24.825H31.8861L31.8861 9.425H34.1139ZM34.1139 24.825C34.1139 27.8394 33.2604 30.3559 31.5024 32.1182C29.744 33.8809 27.2305 34.7389 24.2147 34.7389V32.5111C26.8162 32.5111 28.6953 31.7778 29.9252 30.5448C31.1556 29.3115 31.8861 27.428 31.8861 24.825H34.1139Z" fill="url(#paint0_linear_1013_11715)" mask="url(#path-1-inside-1_1013_11715)"/>
</g>
<path d="M15.8126 10.875V23.375C15.8126 24.4796 14.9171 25.375 13.8126 25.375H10.25C9.14543 25.375 8.25 24.4796 8.25 23.375V10.875C8.25 9.77043 9.14543 8.875 10.25 8.875H13.8126C14.9171 8.875 15.8126 9.77043 15.8126 10.875Z" fill="url(#paint1_linear_1013_11715)"/>
<path d="M19.1875 8.875H22.7501C23.8546 8.875 24.7501 9.77043 24.7501 10.875V14.4376C24.7501 15.5421 23.8546 16.4376 22.7501 16.4376H19.1875C18.0829 16.4376 17.1875 15.5421 17.1875 14.4376V10.875C17.1875 9.77043 18.0829 8.875 19.1875 8.875Z" fill="white"/>
<path d="M19.1875 17.8125H22.7501C23.8546 17.8125 24.7501 18.7079 24.7501 19.8125V23.3751C24.7501 24.4796 23.8546 25.3751 22.7501 25.3751H19.1875C18.0829 25.3751 17.1875 24.4796 17.1875 23.3751V19.8125C17.1875 18.7079 18.0829 17.8125 19.1875 17.8125Z" fill="white"/>
<defs>
<filter id="filter0_b_1013_11715" x="-16.7084" y="-16.0834" width="66.4168" height="66.4168" filterUnits="userSpaceOnUse" color-interpolation-filters="sRGB">
<feFlood flood-opacity="0" result="BackgroundImageFix"/>
<feGaussianBlur in="BackgroundImageFix" stdDeviation="8.3542"/>
<feComposite in2="SourceAlpha" operator="in" result="effect1_backgroundBlur_1013_11715"/>
<feBlend mode="normal" in="SourceGraphic" in2="effect1_backgroundBlur_1013_11715" result="shape"/>
</filter>
<linearGradient id="paint0_linear_1013_11715" x1="5.25306" y1="29.7805" x2="26.3036" y2="3.70892" gradientUnits="userSpaceOnUse">
<stop stop-color="white" stop-opacity="0.1"/>
<stop offset="1" stop-color="white" stop-opacity="0.3"/>
</linearGradient>
<linearGradient id="paint1_linear_1013_11715" x1="16.0016" y1="8.46249" x2="2.87729" y2="14.4779" gradientUnits="userSpaceOnUse">
<stop stop-color="white"/>
<stop offset="1" stop-color="white" stop-opacity="0.7"/>
</linearGradient>
</defs>
</svg>
