<svg width="33" height="34" viewBox="0 0 33 34" fill="none" xmlns="http://www.w3.org/2000/svg">
<g filter="url(#filter0_b_1013_13913)">
<mask id="path-1-inside-1_1013_13913" fill="white">
<path d="M24.2147 33.625H8.8C3.18267 33.625 0 30.4423 0 24.825L0 9.425C0 3.80767 3.18267 0.625 8.8 0.625H24.2147C29.832 0.625 33 3.80767 33 9.425V24.825C33 30.4423 29.832 33.625 24.2147 33.625Z"/>
</mask>
<path d="M24.2147 33.625H8.8C3.18267 33.625 0 30.4423 0 24.825L0 9.425C0 3.80767 3.18267 0.625 8.8 0.625H24.2147C29.832 0.625 33 3.80767 33 9.425V24.825C33 30.4423 29.832 33.625 24.2147 33.625Z" fill="white" fill-opacity="0.2"/>
<path d="M24.2147 32.5111C24.8299 32.5111 25.3286 33.0098 25.3286 33.625C25.3286 34.2402 24.8299 34.7389 24.2147 34.7389V32.5111ZM24.2147 34.7389C23.5995 34.7389 23.1008 34.2402 23.1008 33.625C23.1008 33.0098 23.5995 32.5111 24.2147 32.5111V34.7389ZM24.2147 34.7389H8.8V32.5111H24.2147V34.7389ZM8.8 34.7389C5.78425 34.7389 3.26771 33.881 1.50586 32.1191C-0.255989 30.3573 -1.11389 27.8407 -1.11389 24.825H1.11389C1.11389 27.4266 1.84732 29.31 3.08114 30.5439C4.31496 31.7777 6.19842 32.5111 8.8 32.5111V34.7389ZM-1.11389 24.825L-1.11389 9.425H1.11389L1.11389 24.825H-1.11389ZM-1.11389 9.425C-1.11389 6.40925 -0.255989 3.89271 1.50586 2.13086C3.26771 0.369011 5.78425 -0.488892 8.8 -0.488892V1.73889C6.19842 1.73889 4.31496 2.47232 3.08114 3.70614C1.84732 4.93996 1.11389 6.82342 1.11389 9.425H-1.11389ZM8.8 -0.488892H24.2147V1.73889L8.8 1.73889V-0.488892ZM24.2147 -0.488892C27.2305 -0.488892 29.744 0.369083 31.5024 2.13182C33.2604 3.89415 34.1139 6.41063 34.1139 9.425H31.8861C31.8861 6.82203 31.1556 4.93852 29.9252 3.70518C28.6953 2.47225 26.8162 1.73889 24.2147 1.73889V-0.488892ZM34.1139 9.425V24.825H31.8861L31.8861 9.425H34.1139ZM34.1139 24.825C34.1139 27.8394 33.2604 30.3559 31.5024 32.1182C29.744 33.8809 27.2305 34.7389 24.2147 34.7389V32.5111C26.8162 32.5111 28.6953 31.7778 29.9252 30.5448C31.1556 29.3115 31.8861 27.428 31.8861 24.825H34.1139Z" fill="url(#paint0_linear_1013_13913)" mask="url(#path-1-inside-1_1013_13913)"/>
</g>
<path d="M25.1739 15.9331L25.1726 15.9318L17.6933 8.45357C17.3745 8.13466 16.9506 7.95898 16.4998 7.95898C16.0489 7.95898 15.6251 8.13452 15.3061 8.45343L7.83074 15.9279C7.82822 15.9304 7.82571 15.9331 7.82319 15.9356C7.16852 16.594 7.16964 17.6622 7.82641 18.3189C8.12646 18.6191 8.52276 18.7929 8.94648 18.8111C8.96368 18.8128 8.98103 18.8136 8.99852 18.8136H9.29661V24.3172C9.29661 25.4062 10.1828 26.2923 11.2722 26.2923H14.1984C14.4949 26.2923 14.7355 26.0519 14.7355 25.7552V21.4404C14.7355 20.9435 15.1398 20.5392 15.6368 20.5392H17.3627C17.8598 20.5392 18.264 20.9435 18.264 21.4404V25.7552C18.264 26.0519 18.5045 26.2923 18.8012 26.2923H21.7273C22.8168 26.2923 23.703 25.4062 23.703 24.3172V18.8136H23.9794C24.4301 18.8136 24.854 18.6381 25.173 18.3192C25.8305 17.6614 25.8308 16.5913 25.1739 15.9331Z" fill="url(#paint1_linear_1013_13913)"/>
<defs>
<filter id="filter0_b_1013_13913" x="-16.7084" y="-16.0834" width="66.4168" height="66.4168" filterUnits="userSpaceOnUse" color-interpolation-filters="sRGB">
<feFlood flood-opacity="0" result="BackgroundImageFix"/>
<feGaussianBlur in="BackgroundImageFix" stdDeviation="8.3542"/>
<feComposite in2="SourceAlpha" operator="in" result="effect1_backgroundBlur_1013_13913"/>
<feBlend mode="normal" in="SourceGraphic" in2="effect1_backgroundBlur_1013_13913" result="shape"/>
</filter>
<linearGradient id="paint0_linear_1013_13913" x1="5.25306" y1="29.7805" x2="26.3036" y2="3.70892" gradientUnits="userSpaceOnUse">
<stop stop-color="white" stop-opacity="0.1"/>
<stop offset="1" stop-color="white" stop-opacity="0.3"/>
</linearGradient>
<linearGradient id="paint1_linear_1013_13913" x1="26.1246" y1="7.50064" x2="6.87462" y2="26.7506" gradientUnits="userSpaceOnUse">
<stop stop-color="white"/>
<stop offset="1" stop-color="white" stop-opacity="0.7"/>
</linearGradient>
</defs>
</svg>
