<svg width="31" height="30" viewBox="0 0 31 30" fill="none" xmlns="http://www.w3.org/2000/svg">
<path d="M13.6109 1.43478C14.2335 -0.356341 16.7665 -0.356346 17.3891 1.43477L19.7453 8.21329C20.02 9.00343 20.7574 9.53918 21.5937 9.55622L28.7686 9.70243C30.6644 9.74107 31.4472 12.1502 29.9361 13.2958L24.2175 17.6313C23.5509 18.1367 23.2692 19.0036 23.5115 19.8042L25.5896 26.6731C26.1387 28.4881 24.0894 29.977 22.5329 28.8939L16.6424 24.7949C15.9557 24.3171 15.0443 24.3171 14.3576 24.7949L8.46711 28.8939C6.91063 29.977 4.86133 28.4881 5.41044 26.6731L7.48854 19.8042C7.73077 19.0036 7.44912 18.1367 6.78252 17.6313L1.06388 13.2958C-0.447185 12.1502 0.335572 9.74107 2.23142 9.70243L9.40628 9.55622C10.2426 9.53918 10.98 9.00344 11.2547 8.21329L13.6109 1.43478Z" fill="url(#paint0_linear_782_14944)"/>
<defs>
<linearGradient id="paint0_linear_782_14944" x1="-4.5" y1="16.1681" x2="35.5" y2="16.1681" gradientUnits="userSpaceOnUse">
<stop stop-color="#F8A7FE"/>
<stop offset="1" stop-color="#C17AFB"/>
</linearGradient>
</defs>
</svg>
