<svg width="24" height="24" viewBox="0 0 24 24" fill="none" xmlns="http://www.w3.org/2000/svg">
<path d="M21 8.85V7C21 4.79086 19.2091 3 17 3H7M21 8.85V17C21 19.2091 19.2091 21 17 21H7C4.79086 21 3 19.2091 3 17V8.85M21 8.85H10.15M3 8.85V7C3 4.79086 4.79086 3 7 3V3M3 8.85H10.15M7 3L10.15 8.85M13.5 3L17.1 8.85" stroke="white" stroke-width="1.5"/>
<path d="M13.9697 13.9798C14.5634 14.3756 14.5634 15.248 13.9697 15.6439L11.7725 17.1087C11.1079 17.5517 10.2178 17.0753 10.2178 16.2766L10.2178 13.347C10.2178 12.5483 11.1079 12.0719 11.7725 12.515L13.9697 13.9798Z" stroke="white" stroke-width="1.5"/>
</svg>
