<svg width="24" height="24" viewBox="0 0 24 24" fill="none" xmlns="http://www.w3.org/2000/svg">
<path fill-rule="evenodd" clip-rule="evenodd" d="M21.2032 2.97433C21.4007 3.17528 21.4689 3.46996 21.3798 3.73723L15.7115 20.7372C15.7115 20.7372 15.7115 20.7372 15.7115 20.7372C15.3462 21.8331 13.8172 21.8894 13.3722 20.8234L13.3692 20.8163L13.3692 20.8163L10.4781 13.6842L3.01847 10.57C1.95245 10.1249 2.00883 8.59592 3.10475 8.23061L3.11714 8.22648L3.11717 8.22659L20.4435 2.78446C20.7123 2.70004 21.0058 2.77337 21.2032 2.97433ZM11.9375 13.2915L14.5028 19.62L18.9517 6.27727L11.9375 13.2915ZM17.9758 5.13182L4.22865 9.44973L10.8808 12.2268L17.9758 5.13182Z" fill="white"/>
</svg>
