<svg width="33" height="34" viewBox="0 0 33 34" fill="none" xmlns="http://www.w3.org/2000/svg">
<g filter="url(#filter0_b_1013_11855)">
<mask id="path-1-inside-1_1013_11855" fill="white">
<path d="M24.2147 33.625H8.8C3.18267 33.625 0 30.4423 0 24.825L0 9.425C0 3.80767 3.18267 0.625 8.8 0.625H24.2147C29.832 0.625 33 3.80767 33 9.425V24.825C33 30.4423 29.832 33.625 24.2147 33.625"/>
</mask>
<path d="M24.2147 33.625H8.8C3.18267 33.625 0 30.4423 0 24.825L0 9.425C0 3.80767 3.18267 0.625 8.8 0.625H24.2147C29.832 0.625 33 3.80767 33 9.425V24.825C33 30.4423 29.832 33.625 24.2147 33.625" fill="white" fill-opacity="0.2"/>
<path d="M24.2147 32.5111C24.8299 32.5111 25.3286 33.0098 25.3286 33.625C25.3286 34.2402 24.8299 34.7389 24.2147 34.7389V32.5111ZM24.2147 34.7389C23.5995 34.7389 23.1008 34.2402 23.1008 33.625C23.1008 33.0098 23.5995 32.5111 24.2147 32.5111V34.7389ZM24.2147 34.7389H8.8V32.5111H24.2147V34.7389ZM8.8 34.7389C5.78425 34.7389 3.26771 33.881 1.50586 32.1191C-0.255989 30.3573 -1.11389 27.8407 -1.11389 24.825H1.11389C1.11389 27.4266 1.84732 29.31 3.08114 30.5439C4.31496 31.7777 6.19842 32.5111 8.8 32.5111V34.7389ZM-1.11389 24.825L-1.11389 9.425H1.11389L1.11389 24.825H-1.11389ZM-1.11389 9.425C-1.11389 6.40925 -0.255989 3.89271 1.50586 2.13086C3.26771 0.369011 5.78425 -0.488892 8.8 -0.488892V1.73889C6.19842 1.73889 4.31496 2.47232 3.08114 3.70614C1.84732 4.93996 1.11389 6.82342 1.11389 9.425H-1.11389ZM8.8 -0.488892H24.2147V1.73889L8.8 1.73889V-0.488892ZM24.2147 -0.488892C27.2305 -0.488892 29.744 0.369083 31.5024 2.13182C33.2604 3.89415 34.1139 6.41063 34.1139 9.425H31.8861C31.8861 6.82203 31.1556 4.93852 29.9252 3.70518C28.6953 2.47225 26.8162 1.73889 24.2147 1.73889V-0.488892ZM34.1139 9.425V24.825H31.8861L31.8861 9.425H34.1139ZM34.1139 24.825C34.1139 27.8394 33.2604 30.3559 31.5024 32.1182C29.744 33.8809 27.2305 34.7389 24.2147 34.7389V32.5111C26.8162 32.5111 28.6953 31.7778 29.9252 30.5448C31.1556 29.3115 31.8861 27.428 31.8861 24.825H34.1139Z" fill="url(#paint0_linear_1013_11855)" mask="url(#path-1-inside-1_1013_11855)"/>
</g>
<path fill-rule="evenodd" clip-rule="evenodd" d="M24.2022 18.4466C24.5301 18.6192 24.783 18.8917 24.961 19.1642C25.3076 19.7274 25.2795 20.4177 24.9423 21.0263L24.2865 22.1164C23.9399 22.6977 23.2935 23.0611 22.6284 23.0611C22.3005 23.0611 21.9352 22.9702 21.6354 22.7886C21.3918 22.6341 21.1108 22.5796 20.811 22.5796C19.8836 22.5796 19.1061 23.3336 19.078 24.2329C19.078 25.2775 18.2161 26.095 17.1388 26.095H15.8648C14.7781 26.095 13.9162 25.2775 13.9162 24.2329C13.8975 23.3336 13.12 22.5796 12.1925 22.5796C11.8834 22.5796 11.6023 22.6341 11.3682 22.7886C11.0684 22.9702 10.6937 23.0611 10.3751 23.0611C9.70066 23.0611 9.05427 22.6977 8.70765 22.1164L8.06127 21.0263C7.71465 20.4359 7.69592 19.7274 8.04253 19.1642C8.19242 18.8917 8.47346 18.6192 8.79197 18.4466C9.05427 18.3194 9.22289 18.1105 9.38215 17.8652C9.85054 17.084 9.56951 16.0576 8.77323 15.5943C7.8458 15.0766 7.54603 13.9229 8.08 13.0237L8.70765 11.9518C9.251 11.0525 10.4126 10.7346 11.3494 11.2614C12.1644 11.6974 13.223 11.4068 13.7008 10.6347C13.8507 10.3803 13.935 10.1078 13.9162 9.8353C13.8975 9.48104 14.0005 9.14494 14.1785 8.87243C14.5251 8.30925 15.1528 7.9459 15.8367 7.92773H17.1575C17.8508 7.92773 18.4784 8.30925 18.825 8.87243C18.9937 9.14494 19.1061 9.48104 19.078 9.8353C19.0592 10.1078 19.1435 10.3803 19.2934 10.6347C19.7712 11.4068 20.8298 11.6974 21.6542 11.2614C22.5816 10.7346 23.7526 11.0525 24.2865 11.9518L24.9142 13.0237C25.4575 13.9229 25.1578 15.0766 24.221 15.5943C23.4247 16.0576 23.1437 17.084 23.6214 17.8652C23.7713 18.1105 23.9399 18.3194 24.2022 18.4466ZM13.8503 17.0204C13.8503 18.4466 15.0401 19.582 16.5108 19.582C17.9816 19.582 19.1432 18.4466 19.1432 17.0204C19.1432 15.5943 17.9816 14.4498 16.5108 14.4498C15.0401 14.4498 13.8503 15.5943 13.8503 17.0204Z" fill="white"/>
<defs>
<filter id="filter0_b_1013_11855" x="-16.7084" y="-16.0834" width="66.4168" height="66.4168" filterUnits="userSpaceOnUse" color-interpolation-filters="sRGB">
<feFlood flood-opacity="0" result="BackgroundImageFix"/>
<feGaussianBlur in="BackgroundImageFix" stdDeviation="8.3542"/>
<feComposite in2="SourceAlpha" operator="in" result="effect1_backgroundBlur_1013_11855"/>
<feBlend mode="normal" in="SourceGraphic" in2="effect1_backgroundBlur_1013_11855" result="shape"/>
</filter>
<linearGradient id="paint0_linear_1013_11855" x1="5.25306" y1="29.7805" x2="26.3036" y2="3.70892" gradientUnits="userSpaceOnUse">
<stop stop-color="white" stop-opacity="0.1"/>
<stop offset="1" stop-color="white" stop-opacity="0.3"/>
</linearGradient>
</defs>
</svg>
