<svg width="24" height="24" viewBox="0 0 24 24" fill="none" xmlns="http://www.w3.org/2000/svg">
<path fill-rule="evenodd" clip-rule="evenodd" d="M20.4023 13.44C20.76 13.6282 21.036 13.9255 21.2301 14.2228C21.6083 14.8372 21.5776 15.5903 21.2097 16.2542L20.4943 17.4434C20.1162 18.0776 19.411 18.4739 18.6855 18.4739C18.3278 18.4739 17.9292 18.3748 17.6022 18.1767C17.3365 18.0082 17.0299 17.9487 16.7029 17.9487C15.6911 17.9487 14.8429 18.7712 14.8122 19.7523C14.8122 20.8918 13.872 21.7837 12.6968 21.7837H11.3069C10.1215 21.7837 9.18125 20.8918 9.18125 19.7523C9.16081 18.7712 8.31259 17.9487 7.30085 17.9487C6.96361 17.9487 6.65702 18.0082 6.40153 18.1767C6.0745 18.3748 5.66572 18.4739 5.31825 18.4739C4.58245 18.4739 3.87729 18.0776 3.49917 17.4434L2.79402 16.2542C2.4159 15.6101 2.39546 14.8372 2.77358 14.2228C2.93709 13.9255 3.24368 13.6282 3.59115 13.44C3.87729 13.3012 4.06125 13.0733 4.23498 12.8057C4.74596 11.9535 4.43937 10.8338 3.57071 10.3284C2.55897 9.76356 2.23194 8.50506 2.81446 7.52403L3.49917 6.35472C4.09191 5.37368 5.35913 5.02685 6.38109 5.6016C7.27019 6.07725 8.425 5.76015 8.9462 4.91785C9.10972 4.64039 9.20169 4.3431 9.18125 4.04582C9.16081 3.65935 9.27323 3.29271 9.4674 2.99542C9.84553 2.38104 10.5302 1.98466 11.2763 1.96484H12.7172C13.4735 1.96484 14.1582 2.38104 14.5363 2.99542C14.7203 3.29271 14.8429 3.65935 14.8122 4.04582C14.7918 4.3431 14.8838 4.64039 15.0473 4.91785C15.5685 5.76015 16.7233 6.07725 17.6226 5.6016C18.6344 5.02685 19.9118 5.37368 20.4943 6.35472L21.179 7.52403C21.7718 8.50506 21.4447 9.76356 20.4228 10.3284C19.5541 10.8338 19.2475 11.9535 19.7687 12.8057C19.9322 13.0733 20.1162 13.3012 20.4023 13.44ZM9.10937 11.8842C9.10937 13.4399 10.4073 14.6786 12.0117 14.6786C13.6162 14.6786 14.8834 13.4399 14.8834 11.8842C14.8834 10.3284 13.6162 9.0798 12.0117 9.0798C10.4073 9.0798 9.10937 10.3284 9.10937 11.8842Z" fill="white"/>
</svg>
