<svg width="20" height="20" viewBox="0 0 20 20" fill="none" xmlns="http://www.w3.org/2000/svg">
<mask id="path-1-inside-1_1367_48" fill="white">
<path d="M10 0C12.2259 2.65431e-08 14.3881 0.742619 16.1442 2.11024C17.9004 3.47785 19.1501 5.39229 19.6953 7.55033C20.2406 9.70836 20.0503 11.9866 19.1545 14.0243C18.2588 16.062 16.7088 17.7425 14.7501 18.7998L14.1435 17.6762C15.8521 16.7539 17.2042 15.2879 17.9856 13.5104C18.7669 11.733 18.9329 9.7456 18.4573 7.86313C17.9817 5.98065 16.8916 4.31067 15.3597 3.11769C13.8278 1.9247 11.9416 1.27691 10 1.27691L10 0Z"/>
</mask>
<path d="M10 0C12.2259 2.65431e-08 14.3881 0.742619 16.1442 2.11024C17.9004 3.47785 19.1501 5.39229 19.6953 7.55033C20.2406 9.70836 20.0503 11.9866 19.1545 14.0243C18.2588 16.062 16.7088 17.7425 14.7501 18.7998L14.1435 17.6762C15.8521 16.7539 17.2042 15.2879 17.9856 13.5104C18.7669 11.733 18.9329 9.7456 18.4573 7.86313C17.9817 5.98065 16.8916 4.31067 15.3597 3.11769C13.8278 1.9247 11.9416 1.27691 10 1.27691L10 0Z" fill="white" stroke="white" stroke-width="2" mask="url(#path-1-inside-1_1367_48)"/>
<mask id="path-2-inside-2_1367_48" fill="white">
<path d="M12.1194 19.7728C9.52746 20.3349 6.81841 19.8444 4.58819 18.4091L5.27927 17.3352C7.2247 18.5872 9.5878 19.0152 11.8487 18.5248L12.1194 19.7728Z"/>
</mask>
<path d="M12.1194 19.7728C9.52746 20.3349 6.81841 19.8444 4.58819 18.4091L5.27927 17.3352C7.2247 18.5872 9.5878 19.0152 11.8487 18.5248L12.1194 19.7728Z" fill="white" stroke="white" stroke-width="2" mask="url(#path-2-inside-2_1367_48)"/>
<mask id="path-3-inside-3_1367_48" fill="white">
<path d="M2.74854 16.8859C1.32456 15.3864 0.400498 13.4822 0.1036 11.4357L1.36737 11.2524C1.62635 13.0376 2.43241 14.6985 3.67455 16.0066L2.74854 16.8859Z"/>
</mask>
<path d="M2.74854 16.8859C1.32456 15.3864 0.400498 13.4822 0.1036 11.4357L1.36737 11.2524C1.62635 13.0376 2.43241 14.6985 3.67455 16.0066L2.74854 16.8859Z" fill="white" stroke="white" stroke-width="2" mask="url(#path-3-inside-3_1367_48)"/>
<mask id="path-4-inside-4_1367_48" fill="white">
<path d="M0.0857455 8.69326C0.316874 6.93968 1.00897 5.27878 2.09145 3.87996L3.10137 4.66149C2.15713 5.88168 1.55341 7.33049 1.3518 8.86013L0.0857455 8.69326Z"/>
</mask>
<path d="M0.0857455 8.69326C0.316874 6.93968 1.00897 5.27878 2.09145 3.87996L3.10137 4.66149C2.15713 5.88168 1.55341 7.33049 1.3518 8.86013L0.0857455 8.69326Z" fill="white" stroke="white" stroke-width="2" mask="url(#path-4-inside-4_1367_48)"/>
<mask id="path-5-inside-5_1367_48" fill="white">
<path d="M3.84368 2.11966C4.59126 1.53564 5.41814 1.06096 6.29946 0.709899L6.77202 1.89624C6.00324 2.20247 5.28195 2.61653 4.62984 3.12598L3.84368 2.11966Z"/>
</mask>
<path d="M3.84368 2.11966C4.59126 1.53564 5.41814 1.06096 6.29946 0.709899L6.77202 1.89624C6.00324 2.20247 5.28195 2.61653 4.62984 3.12598L3.84368 2.11966Z" fill="white" stroke="white" stroke-width="2" mask="url(#path-5-inside-5_1367_48)"/>
<path d="M10.3125 5.3125V15.4688M5.3125 10.3125H15.3125" stroke="white" stroke-width="1.5"/>
</svg>
